<?xml version="1.0" encoding="UTF-8"?><svg id="Layer_2" xmlns="http://www.w3.org/2000/svg" viewBox="0 0 17.84 17.84"><defs><style>.cls-1{fill-rule:evenodd;}</style></defs><g id="Layer_1-2"><g id="tick"><g id="tick_2"><path id="Combined_Shape" class="cls-1" d="M17.78,7.89c.37,3.17-.98,6.25-3.48,8.14-.2,.15-.48,.11-.62-.09-.15-.2-.11-.48,.09-.62,2.25-1.71,3.46-4.47,3.13-7.33-.09-.81-.3-1.57-.61-2.28l-6.39,6.39c-.26,.26-.61,.4-.97,.39-.36,0-.72-.13-.98-.39l-3.32-3.32c-.17-.17-.17-.46,0-.63,.17-.17,.46-.17,.63,0l3.32,3.32c.09,.09,.21,.13,.35,.13,.13,0,.25-.04,.34-.13l6.6-6.6C14.29,2.2,11.26,.57,7.99,.95,3.59,1.46,.43,5.44,.95,9.85c.42,3.6,3.2,6.45,6.74,7.01,.08,.01,.23,.04,.43,.06,.15,.02,.3,.03,.45,.04,.25,.02,.43,.23,.41,.48-.02,.25-.23,.43-.48,.41-.16-.01-.33-.03-.49-.05-.21-.02-.37-.05-.47-.07C3.61,17.12,.53,13.95,.06,9.95-.51,5.06,3,.63,7.89,.06c3.55-.41,6.85,1.32,8.61,4.16l.57-.57c.17-.17,.46-.17,.63,0,.17,.17,.17,.46,0,.63l-.75,.75c.42,.87,.71,1.83,.83,2.85Z"/></g></g></g></svg>