<?xml version="1.0" encoding="UTF-8"?>
<svg id="Layer_2" data-name="Layer 2" xmlns="http://www.w3.org/2000/svg" viewBox="0 0 27.4 27.4">
  <defs>
    <style>
      .cls-1 {
        fill: #f7f7f9;
      }

      .cls-2 {
        fill: #4f518c;
      }
    </style>
  </defs>
  <g id="Layer_1-2" data-name="Layer 1">
    <g>
      <circle class="cls-1" cx="13.7" cy="13.7" r="13.7" transform="translate(-1.51 25.71) rotate(-83.29)"/>
      <path class="cls-2" d="m25.35,13.7c0,6.43-5.21,11.65-11.65,11.65S2.05,20.13,2.05,13.7,7.27,2.05,13.7,2.05s11.65,5.21,11.65,11.65Z"/>
      <path class="cls-1" d="m19.21,12.32h-4.68v-4.68c0-.61-.49-1.1-1.1-1.1s-1.1.49-1.1,1.1v4.68h-4.68c-.61,0-1.1.49-1.1,1.1s.49,1.1,1.1,1.1h4.68v4.68c0,.61.49,1.1,1.1,1.1s1.1-.49,1.1-1.1v-4.68h4.68c.61,0,1.1-.49,1.1-1.1s-.49-1.1-1.1-1.1Z"/>
    </g>
  </g>
</svg>