<?xml version="1.0" encoding="UTF-8"?><svg id="Layer_2" xmlns="http://www.w3.org/2000/svg" viewBox="0 0 245.55 216.86"><defs><style>.cls-1,.cls-2,.cls-3{fill:none;stroke:#62428c;stroke-linecap:round;stroke-linejoin:round;}.cls-4{fill:#e5d7ff;}.cls-5{fill:#57ddb0;}.cls-6{fill:#62428c;}.cls-7{fill:#4f518c;}.cls-2{stroke-width:2px;}.cls-3{opacity:.25;}</style></defs><g id="Layer_1-2"><g><rect class="cls-7" x="108.89" y="106.57" width="75.17" height="82.65" rx="2.99" ry="2.99" transform="translate(68.41 -45.07) rotate(22.7)"/><polygon class="cls-5" points="209.16 73.02 214.32 63.35 241.69 58.44 245.55 76.8 219.58 81.48 209.16 73.02"/><path class="cls-1" d="M160.51,110.95c3.87-11.93,30.77-37.9,53.23-38.36"/><rect class="cls-4" x="65.15" y="92.38" width="75.17" height="82.65" rx="2.99" ry="2.99" transform="translate(-42.75 48.47) rotate(-22.1)"/><g><polygon class="cls-5" points="36.38 62.08 31.23 52.41 3.86 47.5 0 65.87 25.97 70.54 36.38 62.08"/><path class="cls-1" d="M85.04,100.02c-3.87-11.93-30.77-37.9-53.23-38.36"/></g><path class="cls-2" d="M45.99,104.38c0-44.97,36.46-81.42,81.42-81.42s81.43,36.45,81.43,81.42"/><g><path class="cls-4" d="M213.96,124.97H40.86c-5.68,0-10.29-4.61-10.29-10.29h0c0-5.68,4.61-10.29,10.29-10.29H213.96c5.68,0,10.29,4.61,10.29,10.29h0c0,5.68-4.61,10.29-10.29,10.29Z"/><path class="cls-1" d="M213.96,124.97H40.86c-5.68,0-10.29-4.61-10.29-10.29h0c0-5.68,4.61-10.29,10.29-10.29H213.96c5.68,0,10.29,4.61,10.29,10.29h0c0,5.68-4.61,10.29-10.29,10.29Z"/><path class="cls-1" d="M172.97,216.36H81.85c-12.7,0-23.58-9.07-25.87-21.56l-12.79-69.83H211.62l-12.79,69.83c-2.29,12.49-13.17,21.56-25.87,21.56Z"/><g><line class="cls-1" x1="69.13" y1="124.97" x2="85.04" y2="216.36"/><line class="cls-1" x1="107.29" y1="124.97" x2="115.3" y2="216.36"/></g><g><line class="cls-1" x1="186.5" y1="124.97" x2="170.59" y2="216.36"/><line class="cls-1" x1="147.84" y1="124.97" x2="140.33" y2="216.36"/></g><line class="cls-1" x1="47.91" y1="150.7" x2="207.12" y2="150.7"/><line class="cls-1" x1="53.24" y1="179.84" x2="201.75" y2="179.84"/><line class="cls-1" x1="58.05" y1="201.7" x2="196.55" y2="201.7"/></g><path class="cls-6" d="M47.91,0l.7,3.61c.69,3.55,3.46,6.32,7.01,7.01l3.61,.7-3.61,.7c-3.55,.69-6.32,3.46-7.01,7.01l-.7,3.61-.7-3.61c-.69-3.55-3.46-6.32-7.01-7.01l-3.61-.7,3.61-.7c3.55-.69,6.32-3.46,7.01-7.01l.7-3.61Z"/><path class="cls-6" d="M230.11,190.69l.7,3.61c.69,3.55,3.46,6.32,7.01,7.01l3.61,.7-3.61,.7c-3.55,.69-6.32,3.46-7.01,7.01l-.7,3.61-.7-3.61c-.69-3.55-3.46-6.32-7.01-7.01l-3.61-.7,3.61-.7c3.55-.69,6.32-3.46,7.01-7.01l.7-3.61Z"/><g><line class="cls-3" x1="141.39" y1="83.34" x2="135.74" y2="83.34"/><line class="cls-3" x1="141.39" y1="80.77" x2="131.26" y2="80.77"/><g><path class="cls-2" d="M126.16,58.6c2.53,2.53,2.53,6.63,0,9.16-2.53,2.53-6.63,2.53-9.16,0s-2.53-6.63,0-9.16c2.53-2.53,6.63-2.53,9.16,0Z"/><line class="cls-2" x1="126.16" y1="67.76" x2="133.76" y2="75.36"/></g></g></g></g></svg>