<?xml version="1.0" encoding="UTF-8"?>
<svg id="Layer_2" data-name="Layer 2" xmlns="http://www.w3.org/2000/svg" viewBox="0 0 20.19 19.43">
  <defs>
    <!-- <style>
      .cls-1 {
        fill: #fff;
      }
    </style> -->
  </defs>
  <g id="Layer_1-2" data-name="Layer 1">
    <path class="cls-1" d="m20.11,9.94L10.55.19c-.25-.26-.66-.26-.92,0L.08,9.94c-.18.18-.05.49.2.49h1.67c.36,0,.65.29.65.65v7.87c0,.27.21.48.48.48h4.04c.27,0,.49-.22.49-.49v-5.13c0-.21.17-.38.38-.38h4.24c.21,0,.38.17.38.38v5.13c0,.27.22.49.49.49h4.04c.26,0,.48-.22.48-.48v-7.87c0-.36.29-.65.65-.65h1.67c.25,0,.38-.31.2-.49Z"/>
  </g>
</svg>