<?xml version="1.0" encoding="UTF-8"?><svg id="Layer_2" xmlns="http://www.w3.org/2000/svg" viewBox="0 0 11.89 14.87"><defs><style>.cls-1{fill:#4f518c;}</style></defs><g id="Layer_1-2"><g><path class="cls-1" d="M10.64,4.29c-1.56,0-3.13,0-4.69,0s-3.15,0-4.72,0c-.17,0-.3-.02-.3,.24,.02,2.92,.01,5.84,.03,8.77,0,.92,.7,1.57,1.62,1.57,2.22,0,4.44,0,6.66,0,1.06,0,1.72-.64,1.72-1.7,0-2.86,0-5.71,.02-8.57,0-.28-.1-.31-.33-.31ZM3.87,12.4c0,.31-.25,.56-.56,.56s-.56-.25-.56-.56V6.46c0-.31,.25-.56,.56-.56,.15,0,.29,.06,.39,.16,.1,.1,.16,.24,.16,.39v5.93Zm2.63,0c0,.31-.25,.56-.56,.56s-.56-.25-.56-.56V6.46c0-.31,.25-.56,.56-.56,.15,0,.29,.06,.39,.16s.16,.24,.16,.39v5.93Zm2.63,0c0,.31-.25,.56-.56,.56s-.56-.25-.56-.56V6.46c0-.31,.25-.56,.56-.56,.15,0,.29,.06,.39,.16,.1,.1,.16,.24,.16,.39v5.93Z"/><path class="cls-1" d="M11.89,2.5c0-.46-.37-.83-.83-.83h-.14s-.04-.01-.06-.01c-.59,0-1.19,0-1.78,0-.22,0-.31-.03-.33-.29C8.68,.52,8.13,.02,7.28,0c-.84-.01-1.68-.01-2.52,0-1,.01-1.46,.41-1.59,1.4-.03,.23-.13,.25-.31,.25-.22,0-.44,0-.67,0H.83c-.46,0-.83,.37-.83,.83s.36,.81,.8,.83H11.06s.06,0,.09,0h.01c.41-.05,.73-.4,.73-.83ZM4.48,1.18c.09-.04,.19-.06,.28-.06,.79,0,1.57,0,2.36,0,.11,0,.22,.01,.31,.05,.14,.07,.17,.22,.15,.36-.02,.17-.17,.1-.26,.1-.45,0-.9,0-1.36,0s-.93,0-1.39,0c-.09,0-.25,.07-.27-.08-.02-.14,0-.31,.17-.38Z"/></g></g></svg>